<?xml version="1.0" standalone="no"?>
<!DOCTYPE svg PUBLIC "-//W3C//DTD SVG 20010904//EN"
 "http://www.w3.org/TR/2001/REC-SVG-20010904/DTD/svg10.dtd">
<svg version="1.0" xmlns="http://www.w3.org/2000/svg"
 width="2447.000000pt" height="2630.000000pt" viewBox="0 0 2447.000000 2630.000000"
 preserveAspectRatio="xMidYMid meet">

<g transform="translate(0.000000,2630.000000) scale(0.100000,-0.100000)"
fill="#000000" stroke="none">
<path d="M12105 23808 c-13 -8 -135 -14 -360 -20 -612 -14 -884 -32 -1355 -88
-199 -24 -458 -62 -538 -80 -23 -6 -54 -10 -68 -10 -15 0 -43 -4 -63 -10 -34
-9 -203 -43 -301 -61 -73 -13 -194 -39 -305 -64 -38 -9 -88 -21 -110 -25 -91
-20 -134 -30 -245 -60 -19 -5 -57 -14 -85 -21 -45 -10 -163 -41 -270 -70 -22
-6 -58 -15 -80 -21 -22 -5 -58 -16 -80 -23 -22 -7 -71 -22 -110 -34 -143 -44
-462 -150 -510 -171 -11 -5 -54 -20 -95 -35 -41 -15 -85 -31 -97 -36 -13 -5
-33 -13 -45 -18 -140 -56 -169 -68 -251 -105 -32 -14 -60 -26 -62 -26 -15 0
-504 -239 -590 -288 -27 -16 -72 -42 -100 -57 -27 -15 -62 -36 -77 -46 -14
-11 -29 -19 -32 -19 -8 0 -326 -202 -421 -268 -77 -54 -265 -191 -275 -202 -3
-3 -23 -18 -45 -35 -22 -16 -51 -40 -65 -52 -14 -13 -40 -34 -57 -46 -73 -50
-329 -321 -478 -507 -124 -155 -345 -481 -345 -510 0 -5 -3 -10 -7 -12 -12 -5
-45 -67 -129 -238 -41 -85 -84 -172 -95 -193 -10 -22 -19 -43 -19 -48 0 -5
-12 -34 -26 -66 -39 -87 -38 -83 -99 -258 -10 -27 -21 -59 -25 -70 -11 -28
-75 -231 -88 -280 -7 -22 -21 -71 -33 -110 -12 -38 -25 -88 -31 -110 -15 -68
-26 -108 -42 -165 -19 -63 -34 -125 -46 -190 -4 -25 -15 -83 -25 -130 -18 -94
-31 -175 -44 -295 -5 -44 -12 -96 -15 -115 -27 -182 -62 -812 -51 -937 3 -43
10 -172 15 -288 9 -189 20 -309 50 -560 15 -117 27 -206 35 -240 23 -108 38
-174 46 -201 5 -17 9 -41 9 -54 0 -13 4 -37 9 -54 5 -17 17 -60 26 -96 9 -36
21 -79 26 -96 5 -17 9 -39 9 -49 0 -10 4 -32 10 -49 18 -58 52 -191 57 -221 2
-16 8 -39 13 -50 5 -11 11 -33 15 -50 9 -43 22 -92 41 -155 9 -30 19 -70 21
-88 3 -18 9 -35 14 -38 5 -3 9 -18 9 -35 0 -16 4 -37 9 -47 15 -31 41 -119 41
-140 0 -12 5 -24 10 -27 6 -3 10 -19 10 -35 0 -16 5 -32 10 -35 6 -3 10 -17
10 -30 0 -13 6 -39 14 -57 8 -18 20 -53 26 -78 7 -25 16 -56 20 -70 4 -14 16
-52 26 -85 10 -33 22 -64 26 -69 4 -6 8 -22 8 -37 0 -15 4 -30 9 -33 5 -3 11
-18 14 -33 5 -30 44 -147 58 -175 5 -10 9 -25 9 -33 0 -8 4 -23 9 -33 6 -9 22
-51 36 -92 14 -41 30 -83 36 -92 5 -10 9 -25 9 -33 0 -8 4 -23 9 -33 5 -9 17
-37 26 -62 9 -25 21 -53 26 -62 5 -10 9 -25 9 -33 0 -8 4 -23 9 -33 18 -36 52
-118 71 -172 7 -19 23 -59 36 -88 13 -29 24 -57 24 -62 0 -6 4 -18 9 -28 8
-15 27 -57 67 -149 35 -82 48 -111 65 -147 11 -22 19 -46 19 -53 0 -7 5 -13
10 -13 6 0 10 -6 10 -13 0 -14 7 -29 91 -203 27 -55 49 -106 49 -112 0 -7 5
-12 10 -12 6 0 10 -7 10 -15 0 -9 11 -33 25 -55 14 -22 25 -46 25 -55 0 -8 5
-15 10 -15 6 0 10 -7 10 -15 0 -9 10 -32 23 -53 12 -20 45 -82 72 -137 28 -55
53 -101 58 -103 4 -2 7 -12 7 -23 0 -10 5 -19 10 -19 6 0 10 -6 10 -14 0 -7 7
-19 15 -26 8 -7 15 -21 15 -31 0 -11 5 -19 10 -19 6 0 10 -9 10 -20 0 -11 3
-20 8 -20 4 0 12 -10 18 -23 19 -40 96 -182 104 -192 7 -9 33 -55 74 -130 6
-11 13 -22 16 -25 5 -5 56 -99 74 -137 6 -13 14 -23 19 -23 4 0 7 -4 7 -10 0
-5 16 -34 35 -64 19 -30 35 -58 35 -61 0 -4 8 -19 19 -33 10 -15 29 -47 43
-72 14 -25 50 -84 79 -133 92 -149 99 -162 106 -177 4 -8 9 -17 12 -20 9 -7
61 -89 61 -94 0 -3 20 -34 45 -69 25 -36 45 -68 45 -71 0 -3 16 -28 35 -55 19
-26 35 -51 35 -54 0 -3 20 -35 45 -70 25 -36 45 -69 45 -74 0 -5 11 -20 25
-33 14 -13 25 -28 25 -33 0 -5 20 -38 45 -73 25 -34 45 -67 45 -72 0 -6 4 -12
9 -14 4 -1 20 -21 34 -43 15 -22 39 -58 53 -80 15 -22 31 -41 36 -43 4 -2 8
-8 8 -14 0 -11 91 -141 102 -146 5 -2 8 -9 8 -15 0 -7 11 -24 25 -39 14 -15
25 -31 25 -35 0 -4 14 -24 30 -43 16 -19 30 -38 30 -42 0 -4 6 -13 13 -20 7
-7 30 -38 51 -68 22 -30 43 -56 48 -58 4 -2 8 -9 8 -15 0 -6 9 -20 19 -31 11
-12 46 -58 78 -102 51 -72 187 -253 220 -294 6 -8 78 -100 159 -205 129 -166
367 -461 383 -475 4 -3 19 -23 36 -45 16 -22 31 -42 35 -45 5 -5 158 -184 195
-230 11 -13 40 -47 65 -75 25 -27 74 -84 110 -125 35 -41 71 -82 80 -90 8 -8
28 -31 44 -50 15 -19 47 -55 70 -80 23 -25 82 -90 131 -145 221 -248 627 -665
830 -854 50 -46 131 -123 180 -170 50 -47 124 -115 165 -151 41 -36 86 -76
100 -90 14 -14 53 -47 86 -75 32 -27 77 -66 99 -87 22 -20 54 -47 70 -60 17
-12 46 -37 65 -54 38 -35 121 -103 178 -147 21 -16 51 -40 67 -55 30 -27 71
-58 235 -182 47 -35 87 -67 90 -70 12 -14 342 -240 350 -240 6 0 10 -4 10 -10
0 -5 7 -10 15 -10 8 0 15 -4 15 -9 0 -5 8 -11 18 -15 9 -3 58 -31 107 -62 188
-119 470 -261 661 -333 238 -89 335 -111 492 -111 161 0 340 38 502 107 19 8
44 19 55 23 130 53 400 199 604 327 20 12 50 30 66 39 57 32 336 230 509 362
134 102 409 324 495 400 30 26 66 56 80 67 14 10 49 40 76 66 28 26 70 64 95
84 25 20 68 58 95 84 28 25 93 84 145 131 290 262 908 883 1159 1165 25 28 72
79 105 115 81 88 188 208 266 300 35 41 67 77 70 80 3 3 30 34 60 70 30 36 70
81 88 101 18 20 45 52 60 71 15 20 61 75 102 124 104 123 229 276 335 409 21
28 42 52 45 55 3 3 18 23 35 45 16 22 32 42 35 45 3 3 19 23 36 45 16 22 35
46 42 54 8 8 32 39 55 70 23 31 44 58 47 61 3 3 18 23 35 45 16 22 31 42 34
45 4 3 28 34 54 70 26 36 71 96 100 134 108 142 373 510 431 597 16 24 32 46
35 49 3 3 20 25 36 49 17 24 37 54 45 66 8 12 28 42 44 66 16 24 33 45 37 47
5 2 9 8 9 12 0 5 31 54 70 110 39 56 70 104 70 106 0 3 20 34 45 68 25 35 45
66 45 69 0 3 20 34 44 69 24 35 78 119 121 188 42 69 86 137 96 152 11 15 19
29 19 32 0 3 25 44 55 91 30 46 55 87 55 90 0 2 16 29 35 59 19 30 35 60 35
66 0 5 5 10 10 10 6 0 10 5 10 10 0 6 16 36 35 66 19 30 35 57 35 59 0 3 12
24 26 46 14 23 37 62 51 87 28 50 50 89 84 150 12 20 37 66 56 102 19 36 38
70 43 75 20 26 425 823 489 965 19 41 49 107 66 145 40 85 81 176 106 233 10
23 28 63 39 88 12 25 34 79 50 119 16 40 39 95 51 122 11 26 25 57 29 68 13
32 81 208 90 230 27 71 43 113 50 130 31 75 221 635 250 735 7 25 19 65 27 90
8 25 21 70 30 100 8 30 19 71 25 90 5 19 13 51 18 70 5 19 16 62 25 95 20 73
33 127 45 180 5 22 13 58 19 80 22 94 42 184 52 235 60 309 73 384 89 500 5
36 16 115 25 175 28 202 37 298 71 776 15 227 16 282 5 495 -7 131 -17 263
-22 293 -5 30 -9 76 -9 101 0 26 -4 71 -9 101 -5 30 -17 117 -26 194 -9 77
-21 156 -26 176 -5 20 -9 47 -9 59 0 13 -4 37 -9 54 -5 17 -22 76 -36 131 -15
55 -31 109 -35 120 -4 11 -15 43 -23 70 -18 57 -54 161 -67 190 -5 11 -32 79
-60 150 -51 126 -66 161 -116 273 -13 29 -24 55 -24 57 0 20 -286 607 -360
740 -56 101 -72 129 -91 160 -10 17 -23 39 -28 50 -5 11 -28 46 -50 78 -23 32
-41 60 -41 62 0 3 -6 13 -14 22 -8 10 -44 58 -81 107 -96 129 -169 211 -355
397 -179 180 -230 224 -407 363 -118 92 -349 256 -360 256 -3 0 -20 11 -37 23
-41 32 -217 137 -228 137 -4 0 -8 4 -8 9 0 5 -8 11 -17 14 -10 3 -40 19 -68
35 -84 49 -127 73 -205 115 -124 66 -392 201 -440 220 -25 11 -69 30 -98 43
-29 13 -57 24 -62 24 -6 0 -18 4 -28 9 -39 21 -133 61 -142 61 -6 0 -18 4 -28
9 -18 9 -38 18 -112 46 -25 10 -54 21 -65 25 -11 4 -36 13 -55 20 -19 7 -44
16 -55 20 -71 29 -516 180 -592 201 -77 21 -103 29 -183 54 -47 15 -101 31
-120 35 -35 9 -61 16 -160 45 -30 8 -75 20 -100 26 -52 12 -90 21 -180 44 -88
23 -164 41 -272 64 -24 5 -74 16 -113 25 -38 9 -95 21 -125 27 -81 14 -135 25
-230 44 -47 10 -107 21 -135 25 -153 25 -186 30 -250 39 -39 5 -77 12 -85 15
-23 8 -172 28 -620 81 -282 33 -638 59 -1180 85 -293 14 -930 13 -955 -2z
m1090 -2435 c78 -8 187 -36 342 -88 63 -21 259 -122 328 -168 114 -77 263
-210 329 -295 22 -30 62 -81 89 -115 26 -34 60 -89 76 -122 16 -33 41 -72 57
-87 28 -26 33 -27 174 -31 190 -5 243 -19 328 -86 63 -49 146 -141 171 -189
16 -29 39 -103 53 -167 21 -98 9 -249 -26 -313 -9 -15 -27 -51 -41 -81 -29
-60 -78 -113 -171 -182 -59 -44 -81 -53 -204 -79 -92 -20 -90 -18 -90 -57 0
-19 7 -62 15 -94 13 -50 15 -141 12 -611 -4 -555 -9 -660 -47 -843 -5 -27 -13
-68 -16 -90 -6 -49 -17 -91 -54 -215 -16 -52 -33 -114 -39 -137 -25 -97 -35
-129 -48 -144 -7 -8 -16 -31 -19 -50 -4 -19 -12 -41 -19 -49 -7 -8 -17 -37
-24 -63 -11 -44 -40 -112 -76 -177 -8 -14 -29 -54 -46 -90 -17 -36 -36 -72
-41 -80 -5 -8 -20 -40 -35 -70 -14 -30 -37 -68 -50 -83 -12 -16 -38 -54 -57
-86 -19 -32 -50 -76 -69 -97 -120 -132 -177 -208 -177 -235 0 -26 31 -59 75
-82 98 -51 144 -77 150 -87 3 -5 17 -10 31 -10 26 0 98 -33 109 -50 3 -5 17
-10 31 -10 14 0 38 -7 53 -15 44 -22 113 -45 140 -45 14 0 50 -8 80 -19 75
-24 154 -47 221 -61 30 -7 116 -28 190 -47 190 -48 284 -69 390 -83 36 -5 90
-14 120 -20 30 -6 80 -15 110 -20 30 -5 73 -14 95 -20 45 -12 121 -25 245 -41
46 -6 135 -24 198 -40 62 -16 120 -29 129 -29 8 0 70 -26 137 -59 66 -32 142
-68 168 -79 26 -12 64 -37 85 -55 21 -19 49 -40 62 -47 44 -23 136 -98 203
-167 60 -61 168 -221 168 -249 0 -6 11 -21 24 -33 13 -13 27 -34 30 -47 4 -13
17 -40 31 -60 14 -20 25 -43 25 -51 0 -7 22 -57 49 -111 26 -53 54 -122 62
-152 7 -30 21 -66 31 -78 9 -13 29 -63 44 -110 26 -84 39 -124 84 -262 12 -36
25 -78 30 -95 4 -16 12 -49 19 -72 6 -24 16 -62 22 -85 6 -24 19 -71 30 -104
11 -35 19 -90 19 -127 0 -42 4 -67 12 -69 13 -5 43 -108 58 -203 5 -33 15 -80
21 -105 6 -25 15 -72 20 -105 4 -33 13 -89 19 -125 6 -36 15 -94 19 -130 5
-36 15 -85 21 -110 7 -25 16 -81 20 -125 5 -44 14 -105 20 -135 6 -30 15 -91
20 -135 5 -44 14 -120 20 -170 6 -49 13 -119 16 -155 5 -69 19 -220 35 -385
12 -124 29 -416 30 -510 0 -114 -16 -257 -34 -297 -9 -21 -17 -51 -17 -67 0
-16 -5 -33 -10 -36 -6 -4 -21 -27 -34 -53 -21 -42 -32 -51 -97 -81 -135 -61
-159 -71 -179 -71 -18 0 -93 -30 -130 -51 -44 -26 -101 -48 -150 -59 -30 -7
-65 -18 -77 -26 -12 -8 -28 -14 -35 -14 -7 0 -30 -9 -51 -20 -21 -11 -61 -27
-90 -35 -94 -25 -120 -34 -136 -48 -17 -14 -92 -39 -206 -67 -38 -10 -101 -28
-139 -40 -39 -12 -86 -22 -105 -22 -20 0 -64 -13 -98 -29 -34 -16 -76 -29 -93
-29 -17 0 -45 -8 -63 -17 -18 -9 -49 -20 -69 -25 -21 -4 -57 -13 -80 -19 -24
-5 -63 -14 -88 -19 -60 -12 -114 -25 -175 -43 -135 -39 -178 -49 -270 -65 -91
-15 -346 -16 -2845 -17 -2601 0 -2750 1 -2845 18 -119 21 -255 53 -293 69 -26
10 -58 17 -167 36 -27 4 -64 16 -82 25 -18 9 -44 17 -59 17 -14 0 -54 9 -88
19 -33 11 -81 25 -106 31 -25 7 -63 21 -86 31 -23 10 -54 19 -71 19 -16 0 -77
16 -136 35 -59 19 -115 35 -124 35 -29 0 -156 44 -183 63 -13 9 -33 17 -44 17
-22 0 -137 41 -181 64 -16 9 -37 16 -45 16 -9 0 -21 5 -27 11 -10 10 -32 17
-129 40 -23 6 -65 26 -95 45 -29 18 -62 34 -74 34 -28 0 -85 21 -115 43 -13 9
-36 17 -51 17 -15 0 -32 6 -38 14 -7 8 -25 17 -40 21 -47 10 -141 124 -141
170 0 14 -8 42 -17 63 -18 40 -34 183 -34 297 1 108 19 421 30 510 5 44 17
161 25 260 9 99 20 209 25 245 13 98 29 233 29 255 0 11 6 47 12 80 6 33 15
96 20 140 4 44 13 100 20 125 14 53 27 135 40 240 10 81 25 173 33 205 19 67
65 278 72 330 8 54 41 194 66 280 11 39 24 84 28 100 43 162 53 196 72 240 10
22 27 76 39 120 12 44 33 107 47 140 14 33 39 101 57 150 17 50 48 115 69 146
20 31 37 68 37 82 0 14 4 28 9 31 5 4 35 58 67 120 31 63 70 130 86 148 15 18
28 40 28 49 0 25 228 237 290 269 14 7 42 28 63 47 21 18 59 43 85 54 26 11
83 38 127 59 120 57 151 70 203 84 26 8 74 21 107 31 33 9 110 23 170 31 189
25 333 51 465 84 25 7 79 16 120 21 143 16 250 36 301 57 15 6 78 23 140 37
146 34 246 60 334 86 39 11 90 24 115 28 40 7 108 30 220 73 19 7 46 21 60 31
13 9 37 17 52 17 15 0 30 5 33 10 4 6 27 22 53 35 81 44 153 90 163 106 18 28
8 51 -44 107 -29 31 -66 74 -82 95 -17 21 -45 57 -62 80 -18 23 -33 48 -33 56
0 7 -12 28 -27 47 -53 63 -72 91 -84 120 -7 16 -20 38 -29 49 -9 11 -43 76
-75 145 -31 69 -66 143 -76 165 -24 51 -104 259 -117 305 -6 19 -16 55 -22 80
-6 25 -24 88 -40 140 -53 176 -62 221 -97 480 -15 105 -17 208 -17 645 0 487
3 582 20 711 7 58 14 53 -86 74 -123 26 -145 35 -204 79 -123 92 -186 172
-221 278 -13 42 -16 83 -13 210 3 148 5 162 31 217 48 103 160 221 257 271 57
30 107 38 260 42 141 4 146 5 174 31 16 15 40 52 53 82 14 30 28 57 32 60 4 3
22 28 41 55 70 104 228 279 290 321 19 13 60 45 90 69 108 89 387 216 560 255
30 7 65 16 78 21 13 5 49 9 80 10 31 0 66 4 77 9 26 11 1052 5 1170 -7z"/>
<path d="M10841 19351 c-24 -15 -60 -177 -60 -271 -1 -124 15 -136 97 -66 28
24 73 52 99 62 27 10 69 33 94 50 43 30 74 42 169 64 19 4 64 16 100 26 61 18
135 19 1229 21 l1163 3 88 -30 c48 -16 99 -30 114 -30 21 0 149 -59 216 -99 8
-5 29 -15 46 -21 17 -6 51 -29 75 -51 46 -42 58 -46 77 -27 14 14 16 144 3
197 -5 20 -15 63 -22 96 -7 33 -19 66 -27 73 -13 9 -374 12 -1731 12 -1003 0
-1722 -4 -1730 -9z"/>
<path d="M11395 18850 c-16 -4 -52 -13 -78 -19 -26 -6 -80 -26 -120 -45 -40
-18 -89 -41 -109 -51 -20 -9 -70 -51 -111 -94 -60 -63 -79 -91 -105 -156 -27
-67 -32 -93 -32 -159 0 -44 4 -93 9 -110 5 -17 15 -51 22 -76 7 -25 23 -61 35
-80 30 -48 124 -136 154 -145 14 -4 32 -13 40 -20 34 -28 298 -39 420 -17 130
24 166 31 220 47 30 9 74 20 96 26 23 6 52 21 65 35 12 13 34 24 48 24 48 0
231 138 314 237 37 45 37 45 37 138 0 95 -3 105 -51 180 -40 61 -154 157 -229
192 -25 11 -70 32 -101 47 -30 15 -80 32 -110 38 -66 13 -372 20 -414 8z"/>
<path d="M13398 18855 c-3 -3 -32 -10 -64 -15 -33 -5 -81 -21 -107 -35 -27
-14 -59 -25 -71 -25 -13 0 -31 -9 -41 -20 -10 -11 -22 -20 -28 -20 -10 0 -48
-30 -123 -94 -25 -22 -63 -70 -85 -107 -38 -65 -39 -71 -39 -157 0 -88 1 -91
35 -132 19 -23 35 -45 35 -49 0 -4 25 -24 56 -46 31 -22 71 -52 88 -66 35 -30
128 -79 149 -79 7 0 24 -11 36 -24 13 -14 42 -29 65 -35 22 -6 66 -17 96 -26
54 -16 90 -23 220 -47 123 -22 387 -11 420 17 8 7 34 18 57 24 25 7 47 20 54
33 7 12 32 43 56 69 26 28 49 64 55 86 5 21 14 56 20 78 6 22 13 81 15 131 5
96 1 108 -59 232 -20 41 -168 192 -188 192 -6 0 -47 17 -93 38 -80 38 -113 49
-210 71 -47 11 -339 16 -349 6z"/>
<path d="M12455 17698 c-70 -9 -114 -19 -250 -60 -55 -16 -118 -34 -140 -39
-22 -6 -54 -15 -71 -20 -17 -5 -39 -9 -49 -9 -10 0 -44 -9 -74 -20 -160 -56
-273 -73 -476 -73 -172 0 -276 12 -322 36 -18 9 -38 17 -46 17 -8 0 -26 9 -39
20 -14 10 -45 22 -68 26 l-43 7 7 -29 c4 -16 12 -47 17 -69 6 -22 13 -58 16
-80 3 -22 11 -47 18 -55 22 -26 34 -55 55 -134 22 -84 53 -157 82 -195 10 -13
18 -33 18 -45 0 -11 17 -46 38 -76 38 -56 55 -92 66 -142 4 -15 26 -50 51 -78
25 -28 52 -65 60 -83 8 -18 31 -52 50 -77 19 -25 46 -61 59 -80 25 -36 248
-255 307 -301 19 -15 52 -35 74 -47 22 -11 48 -29 59 -41 21 -23 236 -131 262
-131 18 0 35 -5 145 -39 37 -12 89 -21 116 -21 27 0 54 -5 60 -11 22 -22 353
4 453 35 105 33 117 36 136 36 26 0 268 123 309 157 19 15 53 42 76 58 52 36
279 263 332 331 78 100 97 127 97 139 0 7 20 35 44 61 27 31 51 73 66 114 13
36 36 80 51 98 16 18 29 39 29 48 0 13 35 90 79 174 10 19 28 70 40 113 12 43
31 97 43 120 12 23 25 59 30 80 4 20 12 54 18 75 23 92 23 90 2 96 -13 5 -33
-2 -58 -19 -21 -14 -49 -28 -63 -32 -14 -3 -42 -14 -61 -23 -47 -23 -145 -33
-320 -33 -162 0 -259 11 -370 43 -41 11 -88 25 -105 29 -16 5 -50 16 -75 25
-25 8 -55 16 -68 16 -13 0 -69 15 -125 34 -209 70 -388 95 -542 74z"/>
</g>
</svg>
